<?xml version="1.0" encoding="UTF-8" standalone="no"?>
<!DOCTYPE svg PUBLIC "-//W3C//DTD SVG 1.1//EN" "http://www.w3.org/Graphics/SVG/1.1/DTD/svg11.dtd">
<svg width="100%" height="100%" viewBox="0 0 64 64" version="1.1" xmlns="http://www.w3.org/2000/svg" xmlns:xlink="http://www.w3.org/1999/xlink" xml:space="preserve" xmlns:serif="http://www.serif.com/" style="fill-rule:evenodd;clip-rule:evenodd;stroke-linejoin:round;stroke-miterlimit:2;">
    <g transform="matrix(1,0,0,1,-114,-32)">
        <g id="add" transform="matrix(0.489238,0,0,0.489238,-87.4108,-18.4406)">
            <path d="M490.989,154.61L532.278,154.61C534.989,154.61 537.588,155.687 539.505,157.603C541.422,159.52 542.498,162.12 542.498,164.83L542.498,172.186C542.498,174.897 541.422,177.496 539.505,179.413C537.588,181.329 534.989,182.406 532.278,182.406L490.989,182.406L490.989,223.696C490.989,226.406 489.912,229.006 487.995,230.923C486.079,232.839 483.479,233.916 480.769,233.916L473.412,233.916C470.702,233.916 468.102,232.839 466.186,230.923C464.269,229.006 463.192,226.406 463.192,223.696L463.192,182.406L421.903,182.406C419.192,182.406 416.593,181.329 414.676,179.413C412.759,177.496 411.683,174.897 411.683,172.186L411.683,164.83C411.683,162.12 412.759,159.52 414.676,157.603C416.593,155.687 419.192,154.61 421.903,154.61L463.192,154.61L463.192,113.32C463.192,110.61 464.269,108.01 466.186,106.094C468.102,104.177 470.702,103.1 473.412,103.1L480.769,103.1C483.479,103.1 486.079,104.177 487.995,106.094C489.912,108.01 490.989,110.61 490.989,113.32L490.989,154.61Z" style="fill:white;fill-opacity:0.65;"/>
        </g>
    </g>
</svg>
