<?xml version="1.0" encoding="UTF-8" standalone="no"?>
<!DOCTYPE svg PUBLIC "-//W3C//DTD SVG 1.1//EN" "http://www.w3.org/Graphics/SVG/1.1/DTD/svg11.dtd">
<svg width="100%" height="100%" viewBox="0 0 64 64" version="1.1" xmlns="http://www.w3.org/2000/svg" xmlns:xlink="http://www.w3.org/1999/xlink" xml:space="preserve" xmlns:serif="http://www.serif.com/" style="fill-rule:evenodd;clip-rule:evenodd;stroke-linejoin:round;stroke-miterlimit:2;">
    <g transform="matrix(1,0,0,1,-278,-32)">
        <g id="apply" transform="matrix(0.522779,0,0,0.571466,-237.595,-27.2932)">
            <path d="M1035.89,168.691C1035.89,168.691 1070.05,134.538 1085.56,119.027C1087.48,117.102 1090.21,116.006 1093.06,116.006C1095.92,116.006 1098.64,117.102 1100.57,119.027C1102.25,120.714 1104.04,122.498 1105.7,124.163C1109.67,128.136 1109.67,134.219 1105.7,138.191C1091.25,152.642 1058.26,185.622 1043.4,200.479C1041.47,202.403 1038.75,203.5 1035.89,203.5C1033.04,203.5 1030.32,202.404 1028.39,200.479C1017.83,189.919 998.758,170.86 988.916,161.021C985.373,157.48 985.372,152.057 988.915,148.514C990.789,146.64 992.865,144.564 994.811,142.618C996.736,140.693 999.46,139.596 1002.32,139.596C1005.17,139.596 1007.89,140.693 1009.82,142.618C1019.72,152.515 1035.89,168.691 1035.89,168.691Z" style="fill:white;fill-opacity:0.65;"/>
        </g>
    </g>
</svg>
