<?xml version="1.0" encoding="UTF-8" standalone="no"?>
<!DOCTYPE svg PUBLIC "-//W3C//DTD SVG 1.1//EN" "http://www.w3.org/Graphics/SVG/1.1/DTD/svg11.dtd">
<svg width="100%" height="100%" viewBox="0 0 743 743" version="1.1" xmlns="http://www.w3.org/2000/svg" xmlns:xlink="http://www.w3.org/1999/xlink" xml:space="preserve" xmlns:serif="http://www.serif.com/" style="fill-rule:evenodd;clip-rule:evenodd;stroke-linejoin:round;stroke-miterlimit:2;">
    <g transform="matrix(1,0,0,1,-868.665,-1382.44)">
        <g id="logo" transform="matrix(1,0,0,1,-2.27374e-13,-217.875)">
            <g transform="matrix(0.69998,0,0,0.69998,881.068,678.147)">
                <circle cx="513" cy="1848.15" r="530.719"/>
            </g>
            <g transform="matrix(0.625567,0,0,0.625567,356.188,247.081)">
                <g transform="matrix(822.126,0,0,822.126,1003.67,2961.77)">
                    <path d="M0.402,0L0.402,-0.065C0.369,-0.014 0.321,0.012 0.257,0.012C0.216,0.012 0.178,0 0.143,-0.022C0.109,-0.045 0.082,-0.077 0.063,-0.118C0.044,-0.159 0.034,-0.206 0.034,-0.259C0.034,-0.311 0.043,-0.358 0.06,-0.4C0.077,-0.442 0.103,-0.474 0.138,-0.497C0.172,-0.519 0.211,-0.53 0.253,-0.53C0.285,-0.53 0.313,-0.524 0.337,-0.51C0.361,-0.497 0.381,-0.48 0.396,-0.459L0.396,-0.716L0.484,-0.716L0.484,0L0.402,0ZM0.125,-0.259C0.125,-0.192 0.139,-0.143 0.167,-0.11C0.194,-0.077 0.228,-0.061 0.266,-0.061C0.304,-0.061 0.337,-0.076 0.364,-0.108C0.39,-0.139 0.404,-0.187 0.404,-0.251C0.404,-0.322 0.39,-0.375 0.363,-0.408C0.335,-0.441 0.302,-0.458 0.262,-0.458C0.223,-0.458 0.19,-0.442 0.164,-0.41C0.138,-0.378 0.125,-0.327 0.125,-0.259Z" style="fill:white;fill-rule:nonzero;"/>
                </g>
            </g>
            <g transform="matrix(0.625567,0,0,0.625567,25.1854,218.499)">
                <g transform="matrix(822.126,0,0,822.126,1899.18,3023.77)">
                    <path d="M0.066,0.199L0.066,-0.519L0.146,-0.519L0.146,-0.451C0.165,-0.478 0.186,-0.497 0.21,-0.51C0.234,-0.524 0.263,-0.53 0.296,-0.53C0.341,-0.53 0.38,-0.519 0.414,-0.496C0.447,-0.473 0.473,-0.441 0.49,-0.4C0.507,-0.358 0.516,-0.313 0.516,-0.263C0.516,-0.21 0.507,-0.162 0.488,-0.12C0.469,-0.077 0.441,-0.045 0.405,-0.022C0.368,0 0.33,0.012 0.29,0.012C0.261,0.012 0.234,0.006 0.211,-0.007C0.188,-0.019 0.169,-0.035 0.154,-0.054L0.154,0.199L0.066,0.199ZM0.146,-0.256C0.146,-0.19 0.159,-0.14 0.186,-0.108C0.213,-0.076 0.246,-0.061 0.284,-0.061C0.323,-0.061 0.357,-0.077 0.385,-0.11C0.412,-0.143 0.426,-0.194 0.426,-0.264C0.426,-0.33 0.413,-0.379 0.385,-0.412C0.358,-0.445 0.326,-0.461 0.288,-0.461C0.251,-0.461 0.218,-0.444 0.189,-0.409C0.16,-0.374 0.146,-0.323 0.146,-0.256Z" style="fill:rgb(255,119,0);fill-rule:nonzero;"/>
                </g>
            </g>
            <g transform="matrix(0.625567,0,0,0.625567,538.086,183.831)">
                <rect x="1122.2" y="2837.95" width="160.065" height="40.453" style="fill:rgb(255,119,0);"/>
            </g>
            <g transform="matrix(0.579419,0,0,0.625567,592.87,295.955)">
                <ellipse cx="1329" cy="2688.73" rx="61" ry="84.726" style="fill:rgb(255,119,0);"/>
            </g>
            <g transform="matrix(0.625567,0,0,0.625567,538.086,183.831)">
                <rect x="962.132" y="2837.95" width="160.065" height="40.453" style="fill:white;"/>
            </g>
            <g transform="matrix(0.579419,0,0,0.625567,347.224,289.834)">
                <ellipse cx="1329" cy="2688.73" rx="61" ry="84.726" style="fill:white;"/>
            </g>
        </g>
    </g>
</svg>
